<svg xmlns="http://www.w3.org/2000/svg" version="1.1" xmlns:xlink="http://www.w3.org/1999/xlink" xmlns:svgjs="http://svgjs.com/svgjs" width="500" height="600" preserveAspectRatio="none" viewBox="0 0 500 600"><g mask="url(&quot;#SvgjsMask1000&quot;)" fill="none"><rect width="500" height="600" x="0" y="0" fill="rgba(48, 227, 202, 1)"></rect><path d="M-67.48 0.81 a68.29 68.29 0 1 0 136.58 0 a68.29 68.29 0 1 0 -136.58 0z" fill="rgba(228, 249, 245, 0.2)" class="triangle-float3"></path><path d="M-51.018135156305334 110.69781922302741L94.52622378509415 146.98610356297752 130.81450812504426 1.4417446215780387-14.729850816355217-34.84653971837207z" fill="rgba(228, 249, 245, 0.2)" class="triangle-float1"></path><path d="M-37.01 -29.66 a7.35 7.35 0 1 0 14.7 0 a7.35 7.35 0 1 0 -14.7 0z" fill="rgba(228, 249, 245, 0.2)" class="triangle-float1"></path><path d="M364.91 -31.58 a3.51 3.51 0 1 0 7.02 0 a3.51 3.51 0 1 0 -7.02 0z" fill="rgba(228, 249, 245, 0.2)" class="triangle-float1"></path><path d="M477.493,186.103C515.542,185.991,550.554,163.547,567.782,129.622C583.628,98.42,574.569,61.802,555.529,32.44C538.298,5.867,509.152,-10.489,477.493,-9.617C447.27,-8.785,423.087,11.223,406.563,36.542C387.86,65.201,371.611,99.237,386.275,130.158C402.657,164.7,439.263,186.216,477.493,186.103" fill="rgba(228, 249, 245, 0.2)" class="triangle-float3"></path><path d="M392.86463832322335 153.0749209796098L537.0538927139712 111.72931760705997 495.70828934142133-32.45993678368788 351.51903495067353 8.885666588861966z" fill="rgba(228, 249, 245, 0.2)" class="triangle-float1"></path><path d="M-99.68 533.01 a132.69 132.69 0 1 0 265.38 0 a132.69 132.69 0 1 0 -265.38 0z" fill="rgba(228, 249, 245, 0.2)" class="triangle-float2"></path><path d="M122.55640068634784 457.1320420794609L-26.325522059850442 475.412443590233-8.04512054907832 624.2943663364313 140.83680219711997 606.0139648256592z" fill="rgba(228, 249, 245, 0.2)" class="triangle-float3"></path><path d="M18.57,560.629C35.026,560.797,53.298,557.618,61.203,543.184C68.919,529.095,60.641,512.822,52.256,499.121C44.366,486.229,33.682,473.815,18.57,473.524C3.061,473.225,-9.481,484.466,-17.443,497.778C-25.668,511.529,-30.55,528.427,-22.584,542.33C-14.584,556.292,2.48,560.465,18.57,560.629" fill="rgba(228, 249, 245, 0.2)" class="triangle-float2"></path><path d="M379.07541935154126 455.8799025248637L358.19945420753146 604.4201128360993 506.739664518767 625.2960779801091 527.6156296627768 476.7558676688735z" fill="rgba(228, 249, 245, 0.2)" class="triangle-float3"></path><path d="M412.603,558.487C427.273,557.765,434.711,542.317,441.608,529.349C447.915,517.491,453.735,504.33,447.819,492.272C441.281,478.947,427.445,470.316,412.603,470.233C397.625,470.149,383.945,478.765,376.698,491.873C369.675,504.575,371.307,519.694,378.194,532.47C385.507,546.037,397.21,559.245,412.603,558.487" fill="rgba(228, 249, 245, 0.2)" class="triangle-float1"></path><path d="M527.634,749.01C578.047,750.611,633.982,747.168,661.81,705.101C691.875,659.652,686.808,598.599,657.54,552.633C630.221,509.728,578.468,492.617,527.634,494.377C480.094,496.023,436.69,520.204,412.425,561.118C387.64,602.908,382.05,655.602,407.448,697.023C431.903,736.906,480.875,747.525,527.634,749.01" fill="rgba(228, 249, 245, 0.2)" class="triangle-float2"></path></g><defs><mask id="SvgjsMask1000"><rect width="500" height="600" fill="#ffffff"></rect></mask></defs></svg>